# xmcd
#
# Track frame offsets:
#	150
#	22366
#	37135
#	61073
#	74780
#	90452
#	114480
#	143890
#	162899
#
# Disc length: 2367 seconds
#
# Revision: 1
# Processed by: cddbd v1.5PL3 Copyright (c) Steve Scherf et al.
# Submitted via: EasyCDDAExtractor 7.0.5.1
#
DISCID=82093d09
DTITLE=Melvin Taylor - Melvin Taylor Plays The Blues For You
DYEAR=1984
DGENRE=Blues
TTITLE0=Talking to Anna Mae Pt 1
TTITLE1=TV Mama
TTITLE2=I'll Olay The Blues For You
TTITLE3=Born to Lose
TTITLE4=Tribute to Wes
TTITLE5=Cadillac Assembly Line
TTITLE6=Voodoo Daddy
TTITLE7=Talking to Anna Mae Pt2
TTITLE8=Groovin' in Paris
EXTD=
EXTT0=
EXTT1=
EXTT2=
EXTT3=
EXTT4=
EXTT5=
EXTT6=
EXTT7=
EXTT8=
PLAYORDER=
